<svg id="svg" version="1.1" xmlns="http://www.w3.org/2000/svg" xmlns:xlink="http://www.w3.org/1999/xlink" width="400" height="533.0254041570439" viewBox="0, 0, 400,533.0254041570439"><g id="svgg"><path id="path0" d="M136.393 184.373 C 115.370 189.462,100.013 205.661,92.205 230.985 C 89.393 240.103,91.478 258.773,96.610 270.439 C 97.783 273.106,98.559 275.289,98.333 275.289 C 98.106 275.289,98.649 276.061,99.538 277.004 C 100.427 277.948,102.577 280.546,104.316 282.778 C 135.543 322.860,202.229 304.588,211.273 253.471 C 213.115 243.057,212.709 241.602,208.168 242.339 C 201.450 243.429,198.373 246.557,192.771 257.989 C 181.779 280.424,161.288 291.500,140.878 286.040 C 98.802 274.784,98.108 214.387,139.894 200.482 C 148.028 197.775,151.501 193.641,151.501 186.666 L 151.501 182.910 146.651 182.987 C 143.984 183.029,139.367 183.653,136.393 184.373 M147.707 202.764 C 146.221 204.290,146.773 207.801,149.061 211.378 C 149.488 212.046,149.838 215.010,149.838 217.964 C 149.838 234.907,133.051 246.205,118.407 239.116 C 102.008 231.177,112.684 267.523,129.676 277.481 C 174.421 303.703,218.639 238.640,175.604 209.903 C 165.026 202.839,151.102 199.276,147.707 202.764 M365.127 220.064 C 361.230 221.766,359.928 223.557,362.587 223.557 C 363.758 223.557,363.972 225.738,363.972 237.644 L 363.972 251.732 371.006 251.950 C 377.888 252.164,378.107 252.101,381.168 249.040 C 388.018 242.190,383.785 231.409,374.244 231.409 L 369.584 231.409 369.319 224.879 L 369.053 218.348 365.127 220.064 M221.284 220.726 C 220.990 221.202,221.900 222.142,223.308 222.815 L 225.866 224.040 226.126 235.447 C 226.399 247.407,225.868 249.423,222.443 249.423 C 221.446 249.423,220.793 249.908,220.991 250.502 C 221.228 251.214,223.842 251.555,228.664 251.501 C 235.923 251.421,238.729 250.185,234.220 249.053 C 232.003 248.497,231.871 248.124,231.871 242.418 L 231.871 236.373 234.867 236.662 C 237.073 236.875,238.182 237.621,239.074 239.492 C 241.071 243.680,242.032 242.404,242.032 235.566 C 242.032 230.434,241.746 229.099,240.647 229.099 C 239.885 229.099,239.261 229.910,239.261 230.901 C 239.261 233.168,236.993 234.482,234.049 233.919 C 231.925 233.513,231.802 233.167,232.059 228.291 L 232.333 223.095 235.867 222.804 C 239.730 222.486,243.880 224.561,243.880 226.811 C 243.880 227.562,244.503 228.176,245.266 228.176 C 246.907 228.176,246.935 227.847,245.679 223.326 L 244.717 219.861 233.267 219.861 C 226.970 219.861,221.578 220.251,221.284 220.726 M319.323 220.477 C 318.092 221.708,318.760 222.516,321.247 222.802 L 323.788 223.095 324.044 235.773 L 324.301 248.451 321.966 249.037 C 316.886 250.312,319.586 251.733,326.768 251.565 C 333.914 251.397,336.558 250.162,332.142 249.053 C 328.334 248.098,328.511 236.482,332.333 236.504 C 335.533 236.522,336.763 237.330,337.582 239.954 C 338.845 244.000,339.954 241.948,339.954 235.566 C 339.954 229.144,338.684 226.937,337.562 231.409 C 337.066 233.384,336.454 233.718,333.341 233.718 L 329.700 233.718 329.977 228.406 L 330.254 223.095 334.220 222.809 C 337.673 222.560,338.543 222.905,340.945 225.476 C 344.312 229.081,345.011 228.614,343.674 223.650 L 342.654 219.861 331.296 219.861 C 325.049 219.861,319.661 220.139,319.323 220.477 M272.286 230.522 C 268.610 233.940,267.940 235.566,270.208 235.566 C 271.314 235.566,271.594 236.936,271.594 242.351 C 271.594 251.334,275.420 254.660,281.816 251.238 C 284.591 249.752,283.929 248.499,280.370 248.499 L 277.136 248.499 277.136 242.032 L 277.136 235.566 280.370 235.566 C 282.987 235.566,283.603 235.214,283.603 233.718 C 283.603 232.223,282.987 231.871,280.370 231.871 C 277.537 231.871,277.136 231.585,277.136 229.561 C 277.136 226.529,276.432 226.668,272.286 230.522 M251.732 231.771 C 246.783 233.929,244.074 242.298,246.723 247.247 C 250.263 253.861,262.841 253.790,265.871 247.139 C 270.201 237.635,261.064 227.702,251.732 231.771 M289.960 232.283 C 283.130 236.142,283.248 247.619,290.155 251.316 C 293.642 253.182,301.165 251.906,303.641 249.028 C 311.208 240.230,300.055 226.579,289.960 232.283 M347.250 233.062 C 343.729 235.435,342.964 238.799,345.946 238.799 C 347.046 238.799,348.279 237.760,349.024 236.206 C 350.658 232.797,353.271 233.230,353.572 236.959 C 353.774 239.457,353.330 239.945,348.953 242.032 C 343.828 244.477,342.152 247.892,344.619 250.864 C 345.894 252.400,350.368 252.618,352.892 251.268 C 354.048 250.649,354.812 250.649,355.195 251.268 C 355.985 252.547,359.670 252.431,361.016 251.085 C 362.834 249.268,362.338 247.692,360.130 248.270 C 358.191 248.777,358.151 248.616,358.719 242.533 C 359.734 231.668,355.054 227.803,347.250 233.062 M259.994 235.771 C 263.265 240.441,260.868 249.423,256.351 249.423 C 253.388 249.423,251.270 246.149,251.270 241.570 C 251.270 236.991,253.388 233.718,256.351 233.718 C 257.582 233.718,259.191 234.625,259.994 235.771 M298.599 235.335 C 302.654 239.931,300.749 249.423,295.772 249.423 C 292.525 249.423,291.076 247.877,290.396 243.687 C 289.227 236.484,294.699 230.913,298.599 235.335 M377.315 235.771 C 380.720 240.633,378.303 249.423,373.561 249.423 C 370.717 249.423,369.515 246.888,369.515 240.892 C 369.515 233.831,373.927 230.935,377.315 235.771 M353.811 245.233 C 353.811 247.144,351.620 249.423,349.782 249.423 C 348.615 249.423,348.740 246.016,349.960 244.573 C 351.927 242.245,353.811 242.568,353.811 245.233 " stroke="none" fill="#ffffff" fill-rule="evenodd"></path></g></svg>