<svg id="svg" version="1.1" xmlns="http://www.w3.org/2000/svg" xmlns:xlink="http://www.w3.org/1999/xlink" width="400" height="200.53908355795147" viewBox="0, 0, 400,200.53908355795147"><g id="svgg"><path id="path0" d="M79.380 27.527 C 76.539 27.944,72.146 28.892,70.755 29.386 C 69.371 29.879,68.242 30.174,67.820 30.154 C 67.688 30.148,67.501 30.271,67.404 30.428 C 67.307 30.586,66.990 30.751,66.700 30.796 C 66.410 30.841,66.021 30.973,65.836 31.088 C 65.650 31.204,65.499 31.238,65.499 31.163 C 65.499 31.029,63.843 31.718,60.916 33.068 C 60.101 33.444,59.009 33.944,58.491 34.180 C 57.972 34.415,57.487 34.678,57.412 34.763 C 57.093 35.130,55.795 35.843,55.791 35.653 C 55.789 35.539,55.698 35.574,55.589 35.732 C 55.373 36.045,52.787 37.862,52.550 37.867 C 52.470 37.869,51.906 38.265,51.298 38.747 C 50.690 39.228,50.111 39.623,50.013 39.623 C 49.806 39.623,47.790 41.170,47.179 41.799 C 46.951 42.032,46.220 42.654,45.553 43.181 C 43.199 45.039,39.395 49.054,36.742 52.481 C 36.077 53.340,35.422 54.084,35.287 54.133 C 35.151 54.182,35.040 54.395,35.040 54.605 C 35.040 54.815,34.940 54.987,34.816 54.987 C 34.693 54.987,34.420 55.320,34.210 55.728 C 34.000 56.135,33.642 56.676,33.414 56.929 C 32.191 58.290,26.597 68.581,26.596 69.474 C 26.595 69.660,26.514 69.811,26.415 69.811 C 26.316 69.811,26.226 69.963,26.215 70.148 C 26.204 70.334,25.952 71.092,25.655 71.833 C 25.358 72.574,24.867 73.804,24.564 74.567 C 24.261 75.329,23.960 76.624,23.894 77.445 C 23.828 78.266,23.698 79.062,23.604 79.214 C 21.938 81.911,20.783 100.135,21.944 105.416 C 22.022 105.773,22.155 106.550,22.238 107.143 C 22.321 107.736,22.494 108.646,22.623 109.164 C 22.752 109.683,22.866 110.290,22.877 110.512 C 22.921 111.373,23.364 113.368,23.626 113.881 C 23.777 114.178,23.890 114.864,23.878 115.406 C 23.865 115.947,23.945 116.334,24.057 116.266 C 24.168 116.197,24.277 116.360,24.300 116.628 C 24.341 117.112,24.419 117.530,24.517 117.790 C 24.545 117.864,24.622 118.218,24.688 118.577 C 24.755 118.936,24.932 119.378,25.082 119.560 C 25.233 119.741,25.332 119.993,25.304 120.120 C 25.247 120.368,25.402 120.831,26.101 122.501 C 26.348 123.091,26.520 123.667,26.482 123.782 C 26.445 123.896,26.536 123.989,26.685 123.989 C 26.833 123.989,26.954 124.128,26.954 124.297 C 26.954 124.617,28.910 128.942,29.375 129.650 C 30.214 130.927,31.752 133.591,31.761 133.781 C 31.766 133.903,31.994 134.206,32.267 134.454 C 32.540 134.703,32.992 135.270,33.273 135.714 C 33.553 136.159,34.497 137.402,35.372 138.477 C 36.246 139.552,36.884 140.431,36.788 140.431 C 36.693 140.431,37.156 140.972,37.816 141.632 C 38.477 142.293,38.951 142.899,38.871 142.980 C 38.790 143.061,38.933 143.127,39.189 143.127 C 39.445 143.127,39.579 143.249,39.487 143.398 C 39.394 143.548,40.018 144.306,40.872 145.083 C 41.726 145.860,42.864 146.920,43.402 147.439 C 43.940 147.958,44.787 148.686,45.285 149.057 C 45.783 149.427,46.711 150.176,47.347 150.721 C 47.983 151.265,48.751 151.790,49.053 151.886 C 49.356 151.982,49.523 152.191,49.423 152.352 C 49.323 152.514,49.367 152.567,49.522 152.471 C 49.675 152.377,50.270 152.661,50.844 153.104 C 51.417 153.547,52.124 154.092,52.413 154.313 C 52.703 154.535,53.087 154.717,53.267 154.717 C 53.447 154.717,53.634 154.808,53.684 154.919 C 53.733 155.030,54.198 155.329,54.717 155.582 C 55.731 156.077,57.193 156.923,57.412 157.143 C 57.680 157.410,58.831 157.996,59.262 158.084 C 59.946 158.224,62.006 159.198,61.881 159.323 C 61.820 159.384,62.066 159.452,62.427 159.473 C 62.789 159.495,63.280 159.675,63.519 159.873 C 63.759 160.072,64.090 160.242,64.255 160.250 C 64.420 160.259,65.222 160.473,66.038 160.725 C 66.853 160.978,67.642 161.191,67.790 161.199 C 67.938 161.206,68.343 161.398,68.689 161.625 C 69.036 161.852,69.379 161.978,69.452 161.904 C 69.525 161.831,70.394 162.003,71.383 162.287 C 80.182 164.811,96.819 164.599,104.573 161.863 C 105.176 161.650,105.850 161.545,106.069 161.629 C 106.289 161.714,106.469 161.663,106.469 161.516 C 106.469 161.370,107.045 161.094,107.749 160.904 C 109.217 160.507,109.129 160.534,109.838 160.248 C 115.661 157.903,117.420 157.105,119.003 156.092 C 120.574 155.086,121.110 154.762,121.563 154.542 C 121.786 154.435,122.936 153.682,124.120 152.870 C 125.304 152.057,126.420 151.393,126.601 151.393 C 126.782 151.393,126.888 151.322,126.835 151.235 C 126.783 151.149,127.303 150.655,127.992 150.138 C 128.681 149.621,129.895 148.651,130.688 147.982 C 131.482 147.313,132.240 146.796,132.373 146.833 C 132.506 146.870,132.584 146.800,132.547 146.677 C 132.510 146.554,133.360 145.585,134.437 144.524 C 135.513 143.462,136.423 142.501,136.458 142.388 C 136.494 142.276,136.644 142.224,136.792 142.273 C 136.941 142.323,136.973 142.274,136.863 142.164 C 136.754 142.055,137.303 141.226,138.082 140.322 C 141.561 136.290,143.529 133.469,146.561 128.167 C 148.444 124.875,152.022 116.093,152.022 114.763 C 152.022 114.420,152.260 113.278,152.553 112.224 C 153.991 107.035,155.203 96.458,154.553 94.766 C 154.424 94.428,153.958 94.340,152.311 94.340 C 148.682 94.340,145.282 95.729,142.090 98.518 C 140.798 99.646,140.653 99.798,139.892 100.820 C 139.522 101.317,139.006 101.943,138.747 102.210 C 138.487 102.477,138.275 102.811,138.275 102.952 C 138.275 103.092,138.102 103.305,137.890 103.423 C 137.678 103.542,137.481 103.760,137.453 103.908 C 137.314 104.639,136.899 105.419,136.585 105.539 C 136.393 105.613,136.208 105.997,136.176 106.393 C 135.962 108.971,129.452 122.437,127.799 123.720 C 127.703 123.794,127.084 124.582,126.422 125.472 C 125.096 127.255,120.027 132.396,118.412 133.595 C 117.847 134.015,116.840 134.800,116.173 135.340 C 114.134 136.991,112.375 138.127,109.838 139.432 C 107.624 140.572,105.022 141.752,103.774 142.183 C 103.699 142.209,103.457 142.305,103.235 142.397 C 97.776 144.657,87.611 145.806,81.402 144.865 C 72.312 143.487,62.770 139.278,57.250 134.211 C 54.740 131.907,51.468 128.274,51.646 127.986 C 51.756 127.808,51.716 127.753,51.550 127.856 C 51.280 128.022,48.603 124.613,47.699 122.951 C 47.471 122.532,46.773 121.343,46.147 120.307 C 37.781 106.461,37.959 85.356,46.576 69.542 C 48.826 65.410,54.044 58.760,55.034 58.760 C 55.157 58.760,55.674 58.299,56.184 57.735 C 57.216 56.592,63.766 51.848,64.166 51.954 C 64.306 51.991,64.420 51.900,64.420 51.752 C 64.420 51.604,64.588 51.482,64.792 51.482 C 64.996 51.482,65.305 51.312,65.478 51.103 C 65.846 50.659,67.688 49.723,68.012 49.815 C 68.134 49.850,68.163 49.763,68.075 49.622 C 67.988 49.481,68.191 49.278,68.527 49.171 C 68.863 49.065,70.168 48.489,71.429 47.891 C 72.689 47.293,75.019 46.419,76.607 45.948 C 83.971 43.765,87.577 39.140,87.622 31.819 C 87.640 28.819,87.391 27.677,86.656 27.395 C 86.032 27.156,81.326 27.241,79.380 27.527 M87.062 48.351 C 83.828 49.063,82.160 51.848,83.647 54.051 C 83.992 54.561,85.387 57.921,85.603 58.760 C 85.660 58.982,85.901 59.832,86.139 60.647 C 87.079 63.877,86.956 69.871,85.859 74.231 C 83.759 82.575,75.935 90.595,67.790 92.753 C 63.768 93.818,55.841 93.617,55.108 92.431 C 55.021 92.290,54.851 92.235,54.731 92.309 C 54.612 92.383,53.201 91.767,51.596 90.941 C 48.076 89.128,46.397 88.819,44.942 89.718 C 44.434 90.032,43.939 90.230,43.842 90.158 C 43.745 90.086,43.727 90.108,43.801 90.208 C 43.876 90.307,43.757 90.664,43.536 91.001 C 43.205 91.505,43.068 98.787,43.389 98.787 C 43.489 98.787,43.637 99.943,43.768 101.752 C 43.843 102.790,43.920 103.639,43.940 103.639 C 43.959 103.639,44.029 103.942,44.094 104.313 C 45.160 110.355,48.098 116.837,52.265 122.343 C 53.095 123.439,54.084 124.806,54.464 125.381 C 54.844 125.956,55.221 126.360,55.302 126.279 C 55.383 126.199,55.602 126.317,55.790 126.543 C 55.977 126.769,56.048 126.954,55.947 126.954 C 55.845 126.954,56.285 127.410,56.924 127.968 C 57.563 128.526,58.404 129.284,58.791 129.653 C 59.885 130.693,61.541 131.958,62.062 132.152 C 62.321 132.249,62.534 132.460,62.534 132.622 C 62.534 132.784,62.655 132.841,62.803 132.749 C 62.951 132.658,63.073 132.711,63.073 132.868 C 63.073 133.025,63.164 133.128,63.275 133.096 C 63.386 133.064,63.964 133.351,64.560 133.733 C 65.839 134.555,71.054 137.228,71.514 137.298 C 71.689 137.325,71.954 137.418,72.102 137.505 C 77.659 140.770,93.153 141.353,101.381 138.606 C 102.215 138.328,103.149 138.119,103.457 138.142 C 103.766 138.164,103.960 138.088,103.888 137.973 C 103.738 137.731,104.470 137.294,105.256 137.156 C 105.553 137.104,105.856 137.001,105.930 136.927 C 106.004 136.853,106.671 136.496,107.412 136.133 C 108.154 135.770,109.072 135.262,109.453 135.003 C 109.834 134.745,110.319 134.496,110.531 134.450 C 110.743 134.404,110.977 134.300,111.051 134.218 C 111.125 134.136,111.792 133.651,112.534 133.140 C 113.275 132.629,113.971 132.089,114.079 131.941 C 114.188 131.792,114.279 131.765,114.282 131.880 C 114.286 132.108,115.726 130.841,117.040 129.454 C 117.493 128.976,117.987 128.662,118.138 128.755 C 118.289 128.848,118.352 128.815,118.278 128.680 C 118.128 128.406,119.005 127.476,119.250 127.650 C 119.336 127.712,119.350 127.685,119.279 127.590 C 119.209 127.495,119.488 126.980,119.899 126.445 C 120.310 125.910,120.845 125.154,121.088 124.765 C 121.332 124.376,122.156 123.345,122.919 122.474 C 124.530 120.635,126.568 117.783,127.166 116.528 C 127.395 116.049,127.714 115.731,127.875 115.823 C 128.035 115.914,128.088 115.901,127.992 115.793 C 127.895 115.685,128.338 114.481,128.976 113.116 C 131.125 108.518,132.123 104.696,132.774 98.581 C 134.094 86.167,132.524 78.550,126.922 70.191 C 126.116 68.987,122.474 64.748,121.042 63.344 C 120.513 62.827,119.747 61.991,119.340 61.488 C 118.932 60.985,118.597 60.680,118.594 60.812 C 118.592 60.944,118.501 60.930,118.392 60.782 C 117.383 59.408,111.709 55.709,107.059 53.394 C 102.289 51.019,95.423 48.785,91.644 48.380 C 90.829 48.293,89.798 48.177,89.353 48.123 C 88.908 48.069,87.877 48.172,87.062 48.351 M231.267 51.513 C 230.748 51.625,229.838 51.749,229.245 51.788 C 228.652 51.828,228.101 51.954,228.021 52.069 C 227.940 52.184,227.637 52.318,227.347 52.368 C 226.486 52.516,224.243 53.763,222.411 55.113 C 221.469 55.807,220.784 56.235,220.891 56.063 C 220.997 55.891,220.100 56.742,218.898 57.954 C 217.695 59.166,216.712 60.214,216.712 60.282 C 216.712 60.428,213.739 64.492,213.488 64.690 C 213.394 64.764,212.784 65.697,212.132 66.763 C 211.480 67.829,210.831 68.629,210.688 68.541 C 210.545 68.452,210.507 68.506,210.602 68.660 C 210.697 68.814,210.550 69.227,210.276 69.577 C 210.002 69.928,209.692 70.489,209.588 70.822 C 209.483 71.156,209.299 71.429,209.178 71.429 C 209.057 71.429,208.894 71.671,208.817 71.968 C 208.686 72.467,208.449 72.507,205.569 72.507 C 202.661 72.507,202.451 72.543,202.285 73.066 C 202.024 73.887,202.162 73.928,204.976 73.875 C 207.624 73.826,207.930 73.964,207.014 74.792 C 206.721 75.057,206.547 75.379,206.626 75.508 C 206.705 75.636,206.642 75.741,206.485 75.741 C 206.328 75.741,206.199 75.900,206.199 76.095 C 206.199 76.289,205.957 76.709,205.660 77.027 C 205.364 77.345,205.121 77.782,205.121 77.999 C 205.121 78.215,205.030 78.432,204.919 78.482 C 204.808 78.531,204.358 79.269,203.919 80.121 C 203.480 80.974,203.018 81.671,202.892 81.671 C 202.766 81.671,202.739 81.792,202.830 81.941 C 202.922 82.089,202.887 82.210,202.752 82.210 C 202.618 82.210,202.303 82.665,202.053 83.221 C 201.802 83.777,201.225 84.899,200.770 85.714 C 200.315 86.530,199.918 87.318,199.887 87.466 C 199.731 88.231,199.399 88.949,199.202 88.949 C 199.080 88.949,198.903 89.257,198.808 89.634 C 198.699 90.071,198.518 90.250,198.307 90.130 C 198.126 90.026,198.069 90.041,198.180 90.163 C 198.364 90.366,197.203 92.674,196.758 92.992 C 196.654 93.066,196.483 93.400,196.379 93.733 C 196.275 94.067,196.077 94.340,195.939 94.340 C 195.800 94.340,195.687 94.467,195.687 94.622 C 195.687 94.778,195.223 95.596,194.656 96.442 C 194.089 97.287,193.224 98.585,192.734 99.326 C 190.924 102.065,190.640 102.440,188.936 104.349 C 187.017 106.498,182.752 110.335,182.530 110.113 C 182.452 110.035,182.167 110.173,181.895 110.419 C 181.624 110.664,181.402 110.767,181.402 110.647 C 181.402 110.527,181.170 110.638,180.886 110.895 C 180.603 111.152,180.208 111.394,180.010 111.434 C 179.812 111.475,179.289 111.655,178.849 111.834 C 178.409 112.014,177.838 112.106,177.582 112.039 C 177.325 111.972,177.062 112.056,176.998 112.225 C 176.926 112.417,176.716 112.329,176.445 111.995 C 176.168 111.652,176.062 111.609,176.154 111.876 C 176.270 112.212,176.051 112.310,175.077 112.360 C 174.404 112.395,173.854 112.317,173.854 112.187 C 173.854 112.057,173.582 111.974,173.248 112.004 C 171.757 112.137,168.471 109.697,168.841 108.732 C 168.927 108.510,168.891 108.393,168.763 108.472 C 168.450 108.666,168.194 107.288,168.194 105.410 C 168.194 102.069,171.136 98.652,174.012 98.652 C 174.399 98.652,174.663 98.495,174.663 98.264 C 174.663 97.774,172.811 97.474,170.752 97.632 C 169.923 97.695,169.177 97.638,169.095 97.506 C 169.013 97.373,168.711 97.516,168.425 97.823 C 167.945 98.338,167.574 98.498,167.049 98.415 C 166.937 98.397,166.846 98.510,166.846 98.666 C 166.846 98.822,166.422 99.127,165.903 99.344 C 165.384 99.560,164.960 99.925,164.960 100.154 C 164.960 100.401,164.832 100.492,164.648 100.379 C 164.468 100.267,164.410 100.304,164.510 100.466 C 164.605 100.619,164.467 101.032,164.204 101.383 C 163.565 102.235,163.073 103.405,163.073 104.072 C 163.073 104.370,162.977 104.555,162.860 104.483 C 162.744 104.411,162.630 104.676,162.609 105.073 C 162.573 105.715,162.597 105.735,162.818 105.256 C 163.001 104.859,163.050 105.084,163.003 106.107 C 162.967 106.871,163.016 107.448,163.111 107.389 C 163.207 107.330,163.358 107.574,163.448 107.933 C 163.538 108.291,163.912 108.940,164.278 109.376 C 164.645 109.811,164.857 110.265,164.750 110.383 C 164.643 110.502,164.685 110.525,164.843 110.435 C 165.001 110.345,165.435 110.553,165.806 110.898 C 166.178 111.242,166.746 111.608,167.068 111.710 C 167.391 111.812,167.655 111.994,167.655 112.114 C 167.655 112.321,168.619 112.612,170.081 112.846 C 170.451 112.906,171.058 113.052,171.429 113.172 C 172.160 113.409,178.316 113.362,178.976 113.115 C 179.478 112.927,181.072 112.626,181.848 112.573 C 182.167 112.552,182.372 112.443,182.303 112.332 C 182.189 112.147,182.340 112.103,183.356 112.022 C 183.541 112.007,183.753 111.920,183.827 111.829 C 184.179 111.396,186.310 110.513,186.600 110.680 C 186.780 110.783,186.840 110.772,186.734 110.654 C 186.530 110.428,189.383 108.563,189.960 108.546 C 190.145 108.540,190.240 108.479,190.170 108.409 C 190.101 108.340,190.617 107.859,191.316 107.341 C 194.138 105.248,199.084 99.682,199.953 97.620 C 200.405 96.550,204.101 91.247,204.349 91.314 C 204.499 91.355,204.544 91.261,204.448 91.106 C 204.352 90.951,204.664 90.190,205.141 89.415 C 205.619 88.640,207.431 85.458,209.168 82.345 C 210.905 79.232,212.685 76.078,213.123 75.337 L 213.919 73.989 219.763 73.917 C 225.905 73.840,226.320 73.929,224.596 74.946 C 223.235 75.749,219.403 79.727,218.736 81.029 C 218.441 81.604,218.077 82.165,217.927 82.274 C 217.777 82.382,217.761 82.473,217.890 82.476 C 218.019 82.478,218.006 82.631,217.860 82.817 C 217.625 83.115,217.356 83.922,217.076 85.175 C 216.246 88.877,217.937 93.783,220.218 94.294 C 220.436 94.343,220.688 94.502,220.778 94.647 C 221.029 95.053,225.557 95.358,226.819 95.054 C 227.116 94.982,227.904 94.780,228.571 94.604 C 229.239 94.428,230.046 94.266,230.365 94.244 C 230.684 94.223,230.901 94.132,230.845 94.042 C 230.744 93.879,231.731 93.346,232.180 93.321 C 232.312 93.314,232.494 93.198,232.584 93.063 C 232.675 92.929,233.417 92.331,234.232 91.734 C 237.359 89.445,240.317 85.522,241.415 82.210 C 241.686 81.395,241.940 80.676,241.980 80.613 C 242.021 80.549,242.400 80.829,242.823 81.234 C 243.732 82.105,245.590 82.711,246.869 82.554 L 247.781 82.442 247.210 83.337 C 246.389 84.624,245.007 87.600,244.855 88.410 C 244.193 91.922,244.999 94.102,247.121 94.542 C 249.681 95.073,251.787 94.694,254.339 93.242 C 255.095 92.812,255.811 92.550,255.932 92.659 C 256.053 92.768,256.078 92.728,255.988 92.570 C 255.826 92.286,257.358 91.193,257.749 91.313 C 257.861 91.347,257.926 91.284,257.894 91.173 C 257.863 91.061,258.833 90.009,260.051 88.835 C 261.268 87.660,262.273 86.811,262.283 86.948 C 262.294 87.085,262.399 86.954,262.517 86.658 C 262.660 86.302,262.738 86.716,262.748 87.875 C 262.756 88.840,262.962 90.175,263.207 90.840 C 263.451 91.504,263.663 92.206,263.677 92.399 C 263.690 92.592,264.076 93.067,264.533 93.453 C 264.990 93.840,265.331 94.268,265.290 94.403 C 265.249 94.538,265.338 94.574,265.487 94.482 C 265.635 94.390,266.330 94.509,267.029 94.746 C 268.322 95.185,272.886 95.290,273.450 94.893 C 273.598 94.789,274.265 94.547,274.933 94.356 C 276.461 93.918,278.931 92.671,279.688 91.954 C 280.006 91.653,280.340 91.481,280.430 91.571 C 280.519 91.660,280.593 91.585,280.593 91.404 C 280.593 91.222,280.733 91.160,280.904 91.266 C 281.078 91.373,281.143 91.341,281.051 91.191 C 280.960 91.045,281.438 90.389,282.112 89.735 C 284.206 87.702,286.832 83.577,287.216 81.717 C 287.457 80.553,287.596 80.488,288.350 81.191 C 289.273 82.051,290.099 82.480,290.834 82.480 C 291.198 82.480,291.336 82.593,291.214 82.791 C 291.083 83.003,291.142 83.028,291.400 82.869 C 291.608 82.740,292.095 82.611,292.483 82.581 C 292.871 82.552,293.707 82.277,294.340 81.971 C 294.973 81.665,295.615 81.491,295.766 81.585 C 295.922 81.681,295.958 81.621,295.850 81.447 C 295.741 81.270,296.196 80.565,296.918 79.794 C 297.832 78.816,298.124 78.318,297.986 77.971 C 297.826 77.569,297.588 77.723,296.492 78.937 C 295.776 79.731,295.067 80.305,294.918 80.213 C 294.769 80.121,294.559 80.187,294.451 80.361 C 294.322 80.570,294.384 80.610,294.635 80.480 C 294.843 80.372,294.774 80.477,294.482 80.714 C 294.190 80.950,293.804 81.087,293.624 81.018 C 293.444 80.949,293.258 80.993,293.211 81.114 C 293.165 81.236,292.717 81.424,292.217 81.532 C 291.653 81.654,291.368 81.630,291.468 81.469 C 291.561 81.319,291.349 81.263,290.962 81.337 C 290.560 81.414,290.296 81.339,290.296 81.148 C 290.296 80.973,290.185 80.900,290.049 80.984 C 289.758 81.164,288.106 79.249,288.292 78.948 C 288.362 78.836,288.309 78.676,288.175 78.593 C 288.041 78.510,287.847 77.992,287.744 77.441 C 287.522 76.257,286.733 74.634,286.141 74.143 C 285.910 73.951,285.772 73.710,285.835 73.607 C 286.174 73.058,282.656 71.631,280.902 71.606 C 278.676 71.574,276.037 71.783,276.156 71.981 C 276.255 72.146,273.839 72.927,273.518 72.835 C 273.406 72.803,273.315 72.879,273.315 73.005 C 273.315 73.131,272.800 73.463,272.170 73.743 C 270.861 74.324,271.012 74.223,268.844 75.977 C 266.357 77.990,264.043 80.943,263.747 82.480 C 263.511 83.703,262.576 85.145,261.059 86.628 C 258.302 89.321,257.682 89.875,257.682 89.641 C 257.682 89.517,257.425 89.742,257.110 90.142 C 256.781 90.561,256.376 90.806,256.153 90.720 C 255.941 90.639,255.833 90.678,255.913 90.808 C 255.993 90.938,255.878 91.194,255.657 91.377 C 255.437 91.560,255.256 91.630,255.256 91.532 C 255.256 91.434,254.987 91.604,254.659 91.910 C 254.331 92.216,253.900 92.404,253.702 92.328 C 253.503 92.252,253.412 92.304,253.498 92.443 C 253.584 92.583,253.023 92.884,252.250 93.114 C 250.591 93.607,250.596 93.606,250.807 93.265 C 250.899 93.115,250.797 93.065,250.573 93.151 C 250.331 93.244,249.997 93.032,249.720 92.609 C 248.873 91.316,249.521 89.895,255.478 79.988 L 259.164 73.857 262.962 73.856 C 266.739 73.854,266.761 73.851,267.063 73.188 L 267.367 72.522 263.743 72.447 L 260.119 72.372 261.225 70.620 C 261.833 69.656,262.406 68.807,262.499 68.733 C 262.662 68.603,263.155 67.746,264.189 65.793 C 264.703 64.822,264.164 63.777,263.491 64.439 C 263.350 64.577,262.076 64.690,260.660 64.691 L 258.086 64.692 257.295 66.159 C 256.860 66.965,256.405 67.564,256.284 67.489 C 256.164 67.415,256.065 67.603,256.065 67.909 C 256.065 68.214,255.923 68.464,255.750 68.464 C 255.577 68.464,255.513 68.541,255.607 68.635 C 255.702 68.730,255.540 69.143,255.248 69.553 C 254.956 69.963,254.717 70.378,254.717 70.474 C 254.717 71.706,253.462 72.427,251.217 72.485 C 248.993 72.543,248.531 72.720,248.522 73.518 C 248.519 73.760,249.133 73.854,250.707 73.854 L 252.896 73.854 252.449 74.461 C 252.203 74.794,251.931 75.280,251.845 75.539 C 251.759 75.799,251.582 76.011,251.451 76.011 C 251.320 76.011,251.213 76.174,251.213 76.373 C 251.213 76.572,250.909 77.088,250.537 77.519 C 250.166 77.949,249.788 78.544,249.698 78.841 C 248.472 82.859,243.323 82.142,242.304 77.811 C 241.696 75.228,240.363 73.326,238.448 72.311 C 236.936 71.510,233.874 71.287,231.817 71.830 C 231.048 72.033,230.182 72.153,229.892 72.097 C 229.603 72.041,229.437 72.111,229.524 72.251 C 229.622 72.410,226.861 72.507,222.245 72.507 L 214.809 72.507 215.333 71.496 C 215.621 70.940,216.080 70.018,216.352 69.448 C 218.203 65.564,225.049 55.855,225.667 56.237 C 225.831 56.338,225.883 56.293,225.784 56.133 C 225.391 55.498,228.988 52.937,230.641 52.676 C 231.812 52.491,233.429 53.514,233.017 54.180 C 232.927 54.327,232.961 54.447,233.093 54.447 C 233.595 54.447,233.460 57.569,232.897 58.998 C 232.022 61.217,232.063 61.293,234.030 61.069 C 234.956 60.964,235.918 60.861,236.166 60.839 C 236.415 60.818,236.570 60.723,236.512 60.629 C 236.453 60.534,236.705 60.320,237.071 60.153 C 239.200 59.183,239.410 55.366,237.460 53.100 C 237.141 52.729,236.965 52.587,237.068 52.785 C 237.171 52.982,236.727 52.808,236.081 52.398 C 235.434 51.988,234.663 51.671,234.367 51.693 C 234.070 51.716,233.464 51.639,233.019 51.522 C 232.574 51.405,231.786 51.401,231.267 51.513 M337.613 51.539 C 337.026 51.664,336.383 51.704,336.183 51.628 C 335.984 51.551,335.887 51.595,335.967 51.725 C 336.047 51.855,335.781 52.026,335.375 52.105 C 334.098 52.353,333.864 52.440,332.347 53.221 C 330.220 54.317,322.796 60.647,323.638 60.647 C 323.706 60.647,323.226 61.284,322.571 62.062 C 321.509 63.325,320.331 64.920,319.137 66.713 C 318.915 67.047,318.032 68.487,317.174 69.913 C 316.025 71.825,315.472 72.507,315.070 72.507 C 314.711 72.507,314.589 72.391,314.714 72.170 C 314.866 71.900,314.831 71.900,314.541 72.170 C 314.312 72.382,313.363 72.507,311.970 72.507 C 309.770 72.507,309.434 72.652,309.434 73.607 C 309.434 73.743,310.593 73.854,312.010 73.854 L 314.586 73.854 314.117 74.648 C 313.859 75.085,313.569 75.394,313.473 75.334 C 313.376 75.275,313.297 75.385,313.297 75.580 C 313.297 76.038,311.542 79.588,311.187 79.848 C 311.038 79.957,311.021 80.048,311.150 80.050 C 311.278 80.052,311.187 80.353,310.947 80.719 C 310.708 81.084,310.191 81.964,309.799 82.673 C 307.014 87.711,303.363 93.883,301.590 96.546 C 300.968 97.482,300.203 98.641,299.892 99.122 C 299.581 99.603,299.235 99.997,299.124 99.998 C 299.013 99.999,298.922 100.177,298.922 100.394 C 298.922 100.781,296.605 103.823,296.177 103.998 C 296.056 104.048,295.957 104.233,295.957 104.411 C 295.957 105.658,287.920 111.716,287.011 111.155 C 286.837 111.047,286.784 111.089,286.885 111.252 C 286.992 111.425,286.557 111.652,285.781 111.830 C 283.477 112.359,282.694 112.437,282.892 112.117 C 283.006 111.932,282.875 111.945,282.544 112.152 C 282.234 112.345,281.800 112.398,281.505 112.277 C 281.226 112.163,280.603 112.042,280.121 112.007 C 279.639 111.972,279.023 111.742,278.752 111.497 C 278.481 111.252,278.140 111.051,277.994 111.051 C 277.848 111.051,277.380 110.687,276.954 110.243 C 276.528 109.798,276.282 109.434,276.406 109.434 C 276.531 109.434,276.422 109.200,276.163 108.914 C 275.020 107.651,275.685 101.078,276.955 101.078 C 277.046 101.078,277.034 101.218,276.928 101.389 C 276.808 101.584,276.855 101.627,277.052 101.506 C 277.225 101.398,277.309 101.216,277.237 101.100 C 276.838 100.454,279.528 98.786,281.132 98.686 C 281.985 98.633,281.759 97.929,280.829 97.743 C 279.448 97.466,277.838 97.549,276.180 97.981 C 275.322 98.204,274.489 98.307,274.330 98.209 C 274.165 98.107,274.118 98.156,274.221 98.322 C 274.321 98.484,274.143 98.696,273.818 98.799 C 272.962 99.070,271.282 100.943,270.603 102.384 C 270.030 103.596,269.995 104.025,270.173 107.615 C 270.186 107.874,270.279 108.086,270.379 108.086 C 270.479 108.086,270.635 108.378,270.724 108.734 C 270.863 109.286,274.394 112.419,274.394 111.990 C 274.394 111.908,274.666 111.991,275.000 112.174 C 275.334 112.357,275.849 112.545,276.146 112.590 C 276.442 112.636,277.027 112.812,277.445 112.981 C 278.583 113.442,287.061 113.317,287.062 112.839 C 287.062 112.711,287.361 112.663,287.726 112.733 C 288.092 112.802,288.425 112.786,288.468 112.697 C 288.510 112.607,289.212 112.308,290.027 112.033 C 290.842 111.757,292.328 111.124,293.329 110.625 C 294.330 110.126,295.148 109.776,295.148 109.846 C 295.148 109.916,295.373 109.761,295.647 109.501 C 296.217 108.962,296.682 108.590,298.384 107.309 C 299.755 106.277,305.121 100.850,305.121 100.496 C 305.121 100.369,305.786 99.365,306.599 98.266 C 308.538 95.645,312.129 90.129,312.129 89.773 C 312.129 89.619,312.903 88.128,313.848 86.458 C 314.793 84.789,316.765 81.301,318.231 78.706 L 320.896 73.989 326.957 73.920 L 333.019 73.851 332.210 74.501 C 331.766 74.858,331.281 75.082,331.132 74.999 C 330.984 74.915,330.950 74.943,331.056 75.061 C 331.163 75.179,330.758 75.665,330.155 76.142 C 324.797 80.382,322.343 88.427,325.016 92.992 C 325.407 93.659,325.696 94.305,325.660 94.427 C 325.623 94.549,325.705 94.580,325.841 94.496 C 325.977 94.412,326.556 94.539,327.128 94.778 C 328.566 95.381,331.359 95.132,333.128 94.243 C 333.858 93.876,334.527 93.647,334.614 93.733 C 334.700 93.820,334.771 93.766,334.771 93.615 C 334.771 93.305,337.615 91.105,338.016 91.105 C 338.159 91.105,338.275 91.475,338.275 91.927 C 338.275 94.440,341.685 96.060,344.559 94.912 C 344.977 94.745,345.413 94.609,345.528 94.609 C 345.644 94.609,346.489 94.124,347.407 93.531 C 348.324 92.938,349.192 92.453,349.335 92.453 C 349.478 92.453,349.597 92.362,349.599 92.251 C 349.604 91.939,353.156 89.074,353.433 89.158 C 353.568 89.198,353.607 89.116,353.520 88.974 C 353.432 88.832,353.484 88.640,353.634 88.547 C 353.798 88.446,353.913 88.737,353.920 89.270 C 353.943 90.953,355.372 93.863,356.329 94.172 C 356.554 94.244,357.240 94.488,357.852 94.714 C 359.646 95.374,362.482 95.297,365.633 94.503 C 365.875 94.442,366.452 94.197,368.733 93.185 C 369.104 93.021,369.528 92.874,369.677 92.859 C 369.825 92.843,370.249 92.569,370.620 92.249 C 370.991 91.930,372.098 91.001,373.081 90.184 C 374.064 89.368,375.252 88.120,375.723 87.410 C 376.193 86.700,376.642 86.159,376.721 86.208 C 376.800 86.258,376.945 86.208,377.044 86.098 C 377.143 85.988,377.056 85.994,376.852 86.113 C 376.647 86.231,376.531 86.221,376.594 86.089 C 376.656 85.957,377.140 84.939,377.670 83.827 C 378.199 82.716,378.743 81.524,378.878 81.179 L 379.123 80.553 379.811 81.179 C 380.189 81.524,380.717 81.845,380.984 81.893 C 382.088 82.091,382.777 82.487,382.591 82.816 C 382.439 83.086,382.473 83.086,382.764 82.817 C 383.241 82.373,383.923 82.373,383.657 82.817 C 383.497 83.084,383.539 83.085,383.862 82.824 C 384.085 82.643,384.867 82.367,385.598 82.210 C 386.329 82.053,387.040 81.898,387.178 81.865 C 387.777 81.724,390.836 78.820,390.836 78.393 C 390.836 78.279,390.578 78.048,390.264 77.880 C 389.837 77.652,389.740 77.652,389.882 77.881 C 390.115 78.258,388.168 80.103,387.787 79.868 C 387.635 79.774,387.602 79.837,387.710 80.012 C 387.882 80.290,387.560 80.445,386.995 80.355 C 386.883 80.338,386.792 80.439,386.792 80.580 C 386.792 80.931,385.008 81.400,383.693 81.394 C 382.044 81.387,379.009 79.846,379.399 79.214 C 380.161 77.981,379.129 72.237,378.146 72.237 C 377.992 72.237,377.943 72.113,378.036 71.961 C 378.130 71.809,378.107 71.702,377.985 71.723 C 377.863 71.745,377.702 71.737,377.628 71.708 C 374.986 70.641,372.768 73.297,373.704 76.407 C 374.866 80.270,368.475 91.178,363.747 93.400 C 359.774 95.266,357.474 92.011,359.675 87.637 C 359.871 87.247,360.119 86.563,360.225 86.119 C 360.522 84.871,362.629 81.502,369.110 71.912 C 372.386 67.063,375.371 62.541,375.741 61.862 C 376.112 61.184,377.719 58.644,379.313 56.218 C 380.906 53.792,382.210 51.728,382.210 51.631 C 382.210 51.450,376.645 51.682,375.539 51.908 C 375.206 51.976,374.933 52.153,374.933 52.301 C 374.933 52.450,373.618 54.540,372.011 56.946 C 370.404 59.352,368.501 62.230,367.782 63.342 C 367.062 64.454,365.041 67.536,363.291 70.190 C 361.540 72.845,360.108 75.107,360.108 75.218 C 360.108 75.329,359.179 76.978,358.044 78.882 C 356.909 80.787,355.496 83.376,354.906 84.636 C 352.782 89.167,345.018 94.938,343.756 92.925 C 342.600 91.081,344.139 87.723,350.627 77.931 C 352.432 75.206,353.908 72.860,353.908 72.715 C 353.908 72.550,352.738 72.522,350.741 72.639 C 347.435 72.832,346.141 73.470,346.093 74.933 C 346.085 75.155,345.885 74.943,345.648 74.463 C 344.290 71.707,339.774 70.578,336.686 72.221 C 335.919 72.629,323.905 72.593,324.152 72.183 C 324.311 71.919,324.267 71.901,323.974 72.113 C 323.507 72.448,322.102 72.626,322.102 72.350 C 322.102 72.076,323.725 69.180,326.053 65.299 C 327.142 63.485,328.032 61.925,328.032 61.832 C 328.032 61.642,329.694 59.327,330.719 58.086 C 332.177 56.324,334.818 53.906,335.098 54.079 C 335.266 54.183,335.317 54.138,335.216 53.974 C 334.978 53.589,337.146 52.561,338.195 52.561 C 338.893 52.561,340.726 53.603,340.075 53.630 C 339.953 53.635,340.044 53.829,340.277 54.062 C 340.891 54.676,340.830 57.337,340.162 59.094 C 339.406 61.084,339.437 61.186,340.795 61.186 C 343.858 61.186,345.822 59.454,345.822 56.754 C 345.822 55.298,345.075 53.425,344.410 53.214 C 344.149 53.131,343.935 52.890,343.935 52.677 C 343.935 52.465,343.844 52.305,343.733 52.323 C 343.024 52.435,342.727 52.279,343.127 52.005 C 343.450 51.784,343.396 51.736,342.857 51.770 C 342.487 51.793,342.123 51.788,342.049 51.759 C 341.974 51.730,341.368 51.657,340.701 51.597 C 340.034 51.537,339.306 51.448,339.084 51.399 C 338.861 51.351,338.199 51.414,337.613 51.539 M235.270 72.844 C 235.455 73.029,235.752 73.181,235.930 73.181 C 236.108 73.181,236.264 73.302,236.277 73.450 C 236.289 73.598,236.377 73.902,236.471 74.124 C 237.362 76.230,235.830 81.740,233.060 86.388 C 232.441 87.426,231.764 88.608,231.556 89.016 C 231.347 89.424,231.075 89.757,230.952 89.757 C 230.829 89.757,230.728 89.884,230.728 90.039 C 230.728 90.444,228.806 92.463,228.563 92.313 C 228.450 92.243,228.287 92.373,228.199 92.601 C 228.002 93.116,226.230 93.885,225.822 93.633 C 225.641 93.521,225.599 93.570,225.716 93.759 C 225.957 94.150,225.729 94.154,225.017 93.774 C 224.614 93.558,224.513 93.558,224.646 93.774 C 224.749 93.939,224.650 94.070,224.423 94.070 C 224.199 94.070,223.919 93.918,223.800 93.733 C 223.682 93.548,223.407 93.396,223.189 93.396 C 222.334 93.396,222.056 89.593,222.770 87.666 C 222.840 87.479,222.912 87.236,222.931 87.127 C 224.071 80.644,232.877 70.451,235.270 72.844 M280.435 72.670 C 280.668 72.759,280.799 72.930,280.726 73.049 C 280.652 73.168,280.808 73.209,281.073 73.139 C 281.631 72.994,282.636 75.358,282.374 76.200 C 282.291 76.466,282.150 77.170,282.061 77.763 C 281.972 78.356,281.593 79.690,281.220 80.728 C 280.847 81.765,280.367 83.100,280.154 83.693 C 277.377 91.419,268.946 97.433,268.037 92.337 C 267.960 91.903,267.855 91.478,267.804 91.394 C 267.718 91.252,267.955 89.617,268.326 87.788 C 269.139 83.783,274.427 74.691,275.543 75.381 C 275.698 75.477,275.749 75.433,275.656 75.283 C 275.429 74.914,276.408 74.047,278.005 73.204 C 279.384 72.476,279.731 72.400,280.435 72.670 M342.304 72.844 C 342.599 73.118,342.625 73.105,342.446 72.776 C 342.302 72.512,342.426 72.548,342.804 72.880 C 343.123 73.159,343.317 73.495,343.235 73.628 C 343.153 73.760,343.247 73.834,343.444 73.794 C 344.125 73.652,343.919 78.586,343.176 80.189 C 342.833 80.930,342.305 82.082,342.002 82.749 C 340.560 85.935,335.242 92.506,334.485 92.039 C 334.371 91.968,334.233 92.044,334.179 92.208 C 333.781 93.402,330.546 92.542,330.030 91.105 C 328.965 88.143,331.739 79.287,334.155 77.935 C 334.372 77.814,334.530 77.626,334.506 77.519 C 334.247 76.370,340.237 72.028,340.769 72.978 C 340.831 73.090,340.845 73.029,340.800 72.844 C 340.752 72.649,340.976 72.507,341.329 72.507 C 341.666 72.507,342.104 72.658,342.304 72.844 " stroke="none" fill="#00584C" fill-rule="evenodd"></path></g></svg>