<svg id="svg" xmlns="http://www.w3.org/2000/svg" xmlns:xlink="http://www.w3.org/1999/xlink" width="400" height="533.0254041570439" viewBox="0, 0, 400,533.0254041570439"><g id="svgg"><path id="path0" d="M184.132 136.147 C 183.206 137.356,180.162 142.123,177.367 146.741 L 172.286 155.138 156.351 155.167 L 140.416 155.196 140.416 152.887 L 140.416 150.577 127.945 150.577 L 115.473 150.577 115.473 152.887 C 115.473 155.656,109.665 156.397,108.652 153.757 C 107.687 151.242,100.310 152.329,99.925 155.044 C 99.727 156.443,98.588 157.632,96.683 158.428 C 86.462 162.698,84.590 167.873,84.232 192.841 C 83.840 220.218,84.988 220.666,90.374 195.240 C 96.696 165.401,92.513 167.738,140.193 167.406 C 164.716 167.235,178.119 166.808,178.885 166.172 C 179.529 165.638,182.596 161.067,185.700 156.015 L 191.345 146.831 203.877 147.087 L 216.410 147.344 222.590 157.044 L 228.771 166.744 266.579 167.206 C 306.124 167.689,306.332 167.712,309.934 171.970 L 311.765 174.134 309.379 172.033 C 305.269 168.415,301.994 168.129,264.562 168.129 L 228.420 168.129 222.633 159.353 L 216.846 150.577 203.804 150.595 L 190.762 150.613 186.836 157.987 C 184.677 162.043,182.910 165.766,182.910 166.260 C 182.910 166.796,188.971 167.262,197.910 167.414 C 211.343 167.641,212.942 167.836,213.220 169.284 C 213.501 170.747,212.534 170.901,203.070 170.902 C 179.780 170.905,157.911 178.116,139.824 191.758 C 132.696 197.134,130.973 197.995,125.108 199.118 C 113.624 201.315,111.525 202.570,104.677 211.341 C 91.191 228.611,71.732 246.761,60.768 252.296 C 54.442 255.489,54.231 256.569,59.115 260.750 C 66.996 267.495,76.105 267.547,86.168 260.904 L 89.657 258.601 89.081 261.171 C 88.764 262.585,88.131 265.196,87.675 266.975 C 84.198 280.537,89.325 309.037,98.880 329.260 C 102.697 337.339,103.749 337.655,108.684 332.204 C 115.478 324.699,115.942 320.022,111.367 305.137 C 95.537 253.626,124.593 202.984,178.181 188.685 C 243.010 171.387,303.066 227.578,286.046 289.607 C 284.791 294.180,283.943 298.102,284.161 298.322 C 286.809 300.996,294.384 274.475,296.544 254.965 C 300.308 220.970,301.292 218.038,310.509 213.336 L 314.088 211.510 314.189 196.979 C 314.298 181.317,314.202 181.208,318.012 201.325 C 321.501 219.744,322.621 217.518,322.227 192.944 C 321.631 155.782,320.868 155.232,269.746 155.176 L 235.104 155.138 230.023 146.741 C 221.404 132.497,224.392 133.949,203.695 133.949 C 185.953 133.949,185.802 133.966,184.132 136.147 M296.499 184.251 C 299.252 187.569,294.329 191.629,291.434 188.429 C 290.238 187.108,290.137 186.357,290.952 184.834 C 292.146 182.603,294.892 182.315,296.499 184.251 M189.838 194.362 C 139.752 204.056,112.765 259.008,135.806 304.388 C 142.223 317.028,145.890 319.503,141.280 308.083 C 123.274 263.476,157.259 215.907,205.447 218.271 C 257.012 220.801,285.322 278.007,256.185 320.797 C 249.978 329.914,250.534 330.899,257.844 323.735 C 310.933 271.707,262.849 180.233,189.838 194.362 M139.721 213.496 C 73.181 282.560,134.905 388.456,227.966 364.892 L 239.303 362.021 247.356 363.530 C 257.408 365.413,258.287 365.226,270.435 358.610 C 291.777 346.987,308.046 340.640,322.864 338.157 C 333.248 336.417,333.172 336.519,329.616 329.038 C 326.009 321.450,315.430 317.643,305.540 320.373 L 302.156 321.308 307.041 314.233 C 317.929 298.462,323.426 278.423,323.676 253.580 L 323.788 242.494 321.089 242.690 C 312.506 243.312,305.335 251.881,303.432 263.793 C 299.999 285.282,298.830 289.489,293.223 300.541 C 262.885 360.341,179.755 371.842,139.505 321.809 C 114.817 291.120,115.875 245.183,141.974 214.545 C 148.048 207.414,146.345 206.621,139.721 213.496 M311.778 220.742 C 304.874 223.868,302.590 227.298,302.843 234.157 C 303.057 239.946,304.826 245.956,306.647 247.082 C 308.265 248.082,318.656 224.808,318.697 220.092 C 318.710 218.510,316.183 218.747,311.778 220.742 M211.547 223.378 C 211.547 223.788,214.560 225.555,218.242 227.304 C 249.148 241.989,257.670 281.507,235.859 309.007 L 231.463 314.550 230.726 310.188 C 230.041 306.135,230.214 305.512,233.155 301.412 C 250.471 277.273,236.019 244.517,205.543 238.827 L 198.152 237.447 204.301 237.956 C 219.512 239.217,233.279 248.099,238.856 260.253 C 240.904 264.717,243.061 265.572,242.412 261.663 C 240.082 247.619,223.423 230.925,207.512 226.688 C 198.271 224.228,178.042 225.766,175.990 229.085 C 175.297 230.206,181.687 242.899,183.245 243.497 C 185.045 244.188,189.376 242.260,189.376 240.768 C 189.376 239.198,191.404 238.311,194.764 238.410 C 197.362 238.487,196.963 238.752,192.905 239.644 C 191.253 240.006,190.330 240.880,190.133 242.265 C 189.905 243.873,188.952 244.538,185.912 245.212 C 183.753 245.691,181.986 246.596,181.986 247.223 C 181.986 249.520,175.217 254.171,172.603 253.669 C 170.792 253.322,169.756 253.733,168.650 255.237 C 167.281 257.100,167.229 257.110,168.052 255.351 C 169.291 252.704,171.556 250.969,173.033 251.536 C 173.711 251.796,175.852 250.678,177.790 249.050 L 181.315 246.091 179.036 242.445 C 177.782 240.440,175.381 236.201,173.700 233.025 C 172.019 229.850,170.373 227.252,170.043 227.252 C 168.153 227.252,156.109 239.617,156.573 241.080 C 156.858 241.980,156.428 243.241,155.601 243.927 C 153.142 245.968,147.874 257.337,146.309 263.978 C 139.421 293.215,162.287 322.729,191.903 322.829 C 202.772 322.865,206.440 321.464,198.131 320.450 C 179.847 318.218,166.407 306.766,161.743 289.442 C 160.442 284.611,160.305 272.792,161.515 269.746 C 162.193 268.040,162.298 269.175,161.918 274.085 C 159.550 304.669,188.882 326.972,215.809 315.061 C 220.332 313.060,221.709 313.817,221.709 318.303 C 221.709 325.382,197.657 330.425,182.411 326.542 C 161.276 321.160,142.336 299.261,142.276 280.139 C 142.269 277.979,141.848 276.212,141.339 276.212 C 139.591 276.212,140.273 292.825,142.326 300.234 C 155.655 348.333,218.230 361.959,249.834 323.645 C 278.058 289.427,262.637 237.412,220.457 224.562 C 213.637 222.484,211.547 222.207,211.547 223.378 M328.406 223.858 C 323.438 225.802,320.468 228.393,317.724 233.176 C 314.167 239.378,314.104 239.261,321.016 239.261 L 327.021 239.261 327.021 243.845 C 327.021 250.101,323.706 275.441,321.420 286.657 C 320.392 291.704,319.730 296.303,319.950 296.878 C 321.086 299.842,334.038 266.619,335.859 256.070 C 336.993 249.502,341.009 236.043,344.142 228.315 C 345.518 224.920,345.570 224.170,344.479 223.479 C 342.637 222.313,331.695 222.571,328.406 223.858 M214.294 249.872 C 233.757 259.735,238.568 283.255,224.313 298.853 C 206.703 318.120,175.837 310.091,169.979 284.718 C 164.295 260.103,191.801 238.474,214.294 249.872 M195.055 250.416 C 177.431 253.881,167.480 274.613,175.621 290.904 C 188.426 316.530,227.048 308.813,228.900 280.258 C 230.147 261.037,213.899 246.711,195.055 250.416 M165.068 262.261 C 163.957 264.750,162.920 266.444,162.764 266.025 C 162.467 265.233,166.030 257.737,166.704 257.737 C 166.915 257.737,166.179 259.773,165.068 262.261 M198.086 267.502 C 199.941 269.357,199.941 271.983,198.086 273.837 C 195.369 276.554,191.224 274.733,191.224 270.822 C 191.224 266.363,195.081 264.497,198.086 267.502 M82.808 287.015 C 80.559 289.264,82.711 315.783,86.728 335.335 C 87.720 340.162,88.827 347.956,89.189 352.656 L 89.846 361.201 92.778 361.201 C 102.790 361.201,112.702 350.462,112.702 339.616 C 112.702 335.633,112.190 335.551,106.236 338.568 C 103.729 339.838,101.486 340.878,101.252 340.878 C 99.493 340.878,84.988 294.765,84.988 289.174 C 84.988 287.268,83.766 286.057,82.808 287.015 M115.788 327.535 C 114.814 330.072,116.000 353.783,117.158 354.941 C 119.406 357.189,127.483 347.156,127.483 342.116 C 127.483 334.570,117.746 322.430,115.788 327.535 M289.992 349.885 C 289.260 356.454,290.397 371.998,291.682 372.979 C 294.787 375.351,296.536 374.428,296.536 370.416 C 296.536 367.023,296.779 366.649,299.307 366.143 C 301.097 365.785,302.079 365.026,302.079 364.000 C 302.079 361.989,298.821 358.974,297.518 359.779 C 296.948 360.131,296.536 359.602,296.536 358.517 C 296.536 356.478,299.037 354.734,301.963 354.734 C 304.763 354.734,305.305 352.932,303.153 350.779 C 301.488 349.115,300.808 348.988,298.057 349.832 C 296.234 350.392,294.350 350.469,293.631 350.013 C 292.078 349.029,290.095 348.959,289.992 349.885 M353.710 349.885 C 353.206 353.349,354.200 372.086,354.934 372.979 C 357.228 375.767,360.525 374.361,359.871 370.873 C 359.294 367.796,359.444 367.535,362.540 366.242 C 367.051 364.357,365.421 358.146,360.873 359.892 C 359.783 360.310,359.353 359.966,359.353 358.677 C 359.353 356.785,362.740 354.734,365.863 354.734 C 368.315 354.734,368.238 351.409,365.754 350.080 C 364.453 349.384,363.019 349.343,361.268 349.954 C 359.758 350.480,358.163 350.514,357.408 350.035 C 355.823 349.032,353.846 348.951,353.710 349.885 M382.652 361.432 L 382.910 373.672 387.991 373.672 L 393.072 373.672 395.150 369.550 C 399.071 361.775,396.720 354.790,390.594 356.015 C 387.948 356.544,387.870 356.464,388.454 353.806 C 388.979 351.415,388.735 350.925,386.617 350.120 C 382.421 348.525,382.383 348.633,382.652 361.432 M321.478 354.273 C 321.478 355.710,320.955 356.582,320.092 356.582 C 319.330 356.582,318.707 357.369,318.707 358.331 C 318.707 359.293,319.330 360.319,320.092 360.611 C 321.125 361.007,321.478 362.654,321.478 367.076 C 321.478 372.706,321.602 373.041,323.897 373.617 C 327.233 374.454,327.506 373.912,327.158 367.138 C 326.908 362.288,327.112 361.201,328.268 361.201 C 330.621 361.201,331.133 359.153,329.175 357.569 C 328.167 356.752,327.527 355.524,327.755 354.840 C 328.265 353.312,326.336 351.996,323.557 351.977 C 321.952 351.966,321.478 352.489,321.478 354.273 M306.402 357.322 C 302.218 361.945,302.738 371.529,307.266 373.251 C 311.302 374.785,314.852 374.316,316.308 372.055 C 319.902 366.474,318.369 356.596,313.904 356.569 C 312.735 356.562,310.931 356.329,309.894 356.051 C 308.710 355.733,307.413 356.205,306.402 357.322 M334.623 356.279 C 331.111 357.685,329.487 367.349,332.128 371.120 C 335.146 375.428,342.882 374.892,344.496 370.263 C 347.619 361.302,341.989 353.328,334.623 356.279 M368.360 357.190 C 364.365 358.847,364.112 359.623,366.922 361.592 L 368.949 363.011 366.809 365.288 C 363.065 369.274,367.112 375.789,371.997 373.639 C 372.918 373.234,375.092 372.867,376.828 372.825 L 379.985 372.748 379.793 366.282 C 379.513 356.838,375.982 354.029,368.360 357.190 M312.240 365.358 C 312.240 369.533,311.012 371.539,310.028 368.972 C 308.793 365.754,309.802 359.803,311.413 360.799 C 311.868 361.080,312.240 363.132,312.240 365.358 M339.393 361.738 C 340.197 363.834,340.092 365.348,338.935 368.300 L 337.916 370.901 337.030 368.591 C 336.068 366.085,336.780 360.277,338.049 360.277 C 338.480 360.277,339.085 360.935,339.393 361.738 M390.781 365.751 C 389.504 370.491,387.533 370.845,388.287 366.199 C 388.851 362.727,390.922 359.370,391.475 361.031 C 391.651 361.557,391.338 363.681,390.781 365.751 " stroke="none" fill="#ffffff" fill-rule="evenodd"></path></g></svg>