<svg id="svg" version="1.1" xmlns="http://www.w3.org/2000/svg" xmlns:xlink="http://www.w3.org/1999/xlink" width="400" height="406.28930817610063" viewBox="0, 0, 400,406.28930817610063"><g id="svgg"><path id="path0" d="M168.553 6.885 C 57.740 25.627,-15.798 134.532,7.575 245.283 C 32.364 362.748,155.012 428.748,267.081 384.931 C 337.974 357.214,391.692 283.344,392.874 211.950 L 393.082 199.371 385.230 199.589 C 365.634 200.133,346.918 216.633,337.664 241.523 C 287.774 375.714,108.235 380.840,64.176 249.331 C 37.477 169.641,79.551 85.878,159.748 59.058 C 185.534 50.435,194.586 40.516,195.954 19.385 C 196.937 4.197,193.559 2.656,168.553 6.885 M192.479 66.729 C 184.157 70.272,183.061 74.910,187.997 85.697 C 216.906 148.874,152.809 219.499,93.082 190.279 C 67.592 177.809,62.543 186.030,70.365 227.274 C 88.092 320.751,210.140 362.739,280.995 299.735 C 331.891 254.480,345.514 179.179,311.823 129.336 C 287.308 93.069,217.108 56.243,192.479 66.729 " stroke="none" fill="#777" fill-rule="evenodd"></path></g></svg>